<?xml version="1.0" encoding="UTF-8"?>
<svg width="29px" height="29px" viewBox="0 0 29 29" version="1.1" xmlns="http://www.w3.org/2000/svg" xmlns:xlink="http://www.w3.org/1999/xlink">
    <!-- Generator: Sketch 42 (36781) - http://www.bohemiancoding.com/sketch -->
    <title>Group</title>
    <desc>Created with Sketch.</desc>
    <defs></defs>
    <g id="TIMER" stroke="none" stroke-width="1" fill="none" fill-rule="evenodd">
        <g id="Desktop" transform="translate(-977.000000, -107.000000)" fill="#223177">
            <g id="Group-4" transform="translate(547.000000, 80.000000)">
                <g id="Group" transform="translate(444.500000, 41.500000) rotate(-45.000000) translate(-444.500000, -41.500000) translate(430.000000, 27.000000)">
                    <path d="M14.5,29 C6.5050625,29 0,22.4949375 0,14.5 C0,6.5050625 6.5050625,0 14.5,0 C22.4949375,0 29,6.5050625 29,14.5 C29,22.4949375 22.4949375,29 14.5,29 Z M14.5,1.8125 C7.50375,1.8125 1.8125,7.50375 1.8125,14.5 C1.8125,21.49625 7.50375,27.1875 14.5,27.1875 C21.49625,27.1875 27.1875,21.49625 27.1875,14.5 C27.1875,7.50375 21.49625,1.8125 14.5,1.8125 Z" id="Shape"></path>
                    <path d="M19.1990741,15.3055556 L9.80092593,15.3055556 C9.28214815,15.3055556 8.86111111,14.9446667 8.86111111,14.5 C8.86111111,14.0553333 9.28214815,13.6944444 9.80092593,13.6944444 L19.1990741,13.6944444 C19.7187917,13.6944444 20.1388889,14.0553333 20.1388889,14.5 C20.1388889,14.9446667 19.7187917,15.3055556 19.1990741,15.3055556 Z" id="Shape"></path>
                    <path d="M14.5,20.1388889 C14.0553333,20.1388889 13.6944444,19.7187917 13.6944444,19.1990741 L13.6944444,9.80092593 C13.6944444,9.28214815 14.0553333,8.86111111 14.5,8.86111111 C14.9446667,8.86111111 15.3055556,9.28214815 15.3055556,9.80092593 L15.3055556,19.1990741 C15.3055556,19.7187917 14.9446667,20.1388889 14.5,20.1388889 Z" id="Shape"></path>
                </g>
            </g>
        </g>
    </g>
</svg>
