<?xml version="1.0" encoding="UTF-8"?>
<svg width="26px" height="26px" viewBox="0 0 26 26" version="1.1" xmlns="http://www.w3.org/2000/svg" xmlns:xlink="http://www.w3.org/1999/xlink">
    <!-- Generator: Sketch 42 (36781) - http://www.bohemiancoding.com/sketch -->
    <title>Group 3</title>
    <desc>Created with Sketch.</desc>
    <defs></defs>
    <g id="Symbols" stroke="none" stroke-width="1" fill="#000000" fill-rule="evenodd">
        <g id="topbar/desktop" transform="translate(-847.000000, -28.000000)" fill-rule="nonzero">
            <g id="Group-3" transform="translate(847.000000, 28.000000)">
                <g id="noun_691905">
                    <path d="M23.0973451,18.6801875 C22.6569027,18.6801875 22.300885,18.317 22.300885,17.8676875 L22.300885,2.4375 C22.300885,1.989 22.6569027,1.625 23.0973451,1.625 C23.5377876,1.625 23.8938053,1.989 23.8938053,2.4375 L23.8938053,17.8676875 C23.8938053,18.317 23.5377876,18.6801875 23.0973451,18.6801875 Z M2.38938053,18.6801875 C1.94973451,18.6801875 1.59292035,18.317 1.59292035,17.8676875 L1.59292035,2.4375 C1.59292035,1.989 1.94973451,1.625 2.38938053,1.625 C2.82902655,1.625 3.18584071,1.989 3.18584071,2.4375 L3.18584071,17.8676875 C3.18584071,18.317 2.82902655,18.6801875 2.38938053,18.6801875 Z M12.7433628,26 C12.3037168,26 11.9469027,25.6368125 11.9469027,25.1875 L11.9469027,17.8676875 C11.9469027,17.418375 12.3037168,17.0551875 12.7433628,17.0551875 C13.1830088,17.0551875 13.539823,17.418375 13.539823,17.8676875 L13.539823,25.1875 C13.539823,25.6368125 13.1830088,26 12.7433628,26 Z M7.96460177,26 C7.85628319,26 7.74716814,25.9780625 7.64123894,25.930125 C7.23982301,25.7473125 7.05823009,25.2679375 7.23743363,24.857625 L10.4232743,17.545125 C10.6016814,17.135625 11.0707965,16.950375 11.4746018,17.132375 C11.8760177,17.3151875 12.0576106,17.7945625 11.8784071,18.204875 L8.69256637,25.517375 C8.56035398,25.819625 8.26884956,26 7.96460177,26 Z M17.5229204,26 C17.2170796,26 16.9263717,25.8204375 16.7941593,25.517375 L13.6083186,18.204875 C13.4299115,17.7945625 13.610708,17.314375 14.0129204,17.132375 C14.4159292,16.950375 14.8866372,17.135625 15.0642478,17.545125 L18.2500885,24.857625 C18.4284956,25.2679375 18.2476991,25.748125 17.8454867,25.930125 C17.740354,25.9780625 17.6312389,26 17.5229204,26 L17.5229204,26 Z M24.6902655,3.25 L0.796460177,3.25 C0.356814159,3.25 0,2.886 0,2.4375 C0,1.989 0.356814159,1.625 0.796460177,1.625 L24.6902655,1.625 C25.130708,1.625 25.4867257,1.989 25.4867257,2.4375 C25.4867257,2.886 25.130708,3.25 24.6902655,3.25 Z M24.6902655,18.6801875 L0.796460177,18.6801875 C0.356814159,18.6801875 0,18.317 0,17.8676875 C0,17.418375 0.356814159,17.0551875 0.796460177,17.0551875 L24.6902655,17.0551875 C25.130708,17.0551875 25.4867257,17.418375 25.4867257,17.8676875 C25.4867257,18.317 25.130708,18.6801875 24.6902655,18.6801875 Z M12.7433628,3.25 C12.3037168,3.25 11.9469027,2.886 11.9469027,2.4375 L11.9469027,0.8125 C11.9469027,0.364 12.3037168,0 12.7433628,0 C13.1830088,0 13.539823,0.364 13.539823,0.8125 L13.539823,2.4375 C13.539823,2.886 13.1830088,3.25 12.7433628,3.25 Z M6.37168142,14.625 C6.16778761,14.625 5.96389381,14.545375 5.80858407,14.3869375 C5.49716814,14.06925 5.49716814,13.55575 5.80858407,13.2380625 L10.5873451,8.3630625 C10.8987611,8.045375 11.4021239,8.045375 11.7135398,8.3630625 L13.9380531,10.632375 L18.5519469,5.9255625 C18.8633628,5.607875 19.3667257,5.607875 19.6781416,5.9255625 C19.9895575,6.24325 19.9895575,6.75675 19.6781416,7.0744375 L14.5011504,12.3556875 C14.1897345,12.673375 13.6863717,12.673375 13.3749558,12.3556875 L11.1504425,10.086375 L6.93477876,14.3869375 C6.77946903,14.545375 6.57557522,14.625 6.37168142,14.625 L6.37168142,14.625 Z" id="Shape"></path>
                </g>
            </g>
        </g>
    </g>
</svg>
