<?xml version="1.0" encoding="UTF-8"?>
<svg width="21px" height="26px" viewBox="0 0 21 26" version="1.1" xmlns="http://www.w3.org/2000/svg" xmlns:xlink="http://www.w3.org/1999/xlink">
    <!-- Generator: Sketch 42 (36781) - http://www.bohemiancoding.com/sketch -->
    <title>Group 5</title>
    <desc>Created with Sketch.</desc>
    <defs></defs>
    <g id="Symbols" stroke="none" stroke-width="1" fill="#000000" fill-rule="evenodd">
        <g id="topbar/desktop" transform="translate(-979.000000, -28.000000)" fill-rule="nonzero">
            <g id="Group-5" transform="translate(979.000000, 28.000000)">
                <g id="noun_576676">
                    <g id="Group">
                        <path d="M18.7544862,26 L1.99780734,26 C0.89633945,26 0,25.0875625 0,23.9663125 L0,2.0336875 C0,0.9124375 0.89633945,0 1.99780734,0 L18.7544862,0 C19.8559541,0 20.7522936,0.9124375 20.7522936,2.0336875 L20.7522936,23.9663125 C20.7522936,25.0875625 19.8559541,26 18.7544862,26 Z M1.99780734,1.625 C1.7767156,1.625 1.59633028,1.808625 1.59633028,2.0336875 L1.59633028,23.9663125 C1.59633028,24.191375 1.7767156,24.375 1.99780734,24.375 L18.7544862,24.375 C18.975578,24.375 19.1559633,24.191375 19.1559633,23.9663125 L19.1559633,2.0336875 C19.1559633,1.808625 18.975578,1.625 18.7544862,1.625 L1.99780734,1.625 Z" id="Shape"></path>
                        <path d="M19.9541284,23.5625 C19.5127431,23.5625 19.1559633,23.1993125 19.1559633,22.75 C19.1559633,22.14875 18.9372661,21.76525 17.7799266,21.464625 L13.4562661,20.3393125 C12.7139725,20.1459375 11.9644954,19.514625 11.9724771,18.679375 L11.9724771,17.875 C11.9836514,16.71475 12.4122661,16.2784375 13.0045046,15.6755625 C13.9591101,14.7038125 14.3669725,13.4168125 14.3669725,11.375 C14.3669725,8.9903125 12.9909358,6.550375 10.3609817,6.5 C7.7613578,6.550375 6.3853211,8.9903125 6.3853211,11.375 C6.3853211,13.173875 6.61359633,14.5201875 7.74778899,15.6755625 C8.34082569,16.2784375 8.7686422,16.71475 8.77981651,17.866875 L8.77981651,18.6875 C8.78779817,19.514625 8.03911927,20.14675 7.29522936,20.3393125 L2.97156881,21.464625 C1.81502752,21.76525 1.59633028,22.14875 1.59633028,22.75 C1.59633028,23.1993125 1.23875229,23.5625 0.798165138,23.5625 C0.357577982,23.5625 0,23.1993125 0,22.75 C0,20.561125 1.93954128,20.0565625 2.57647706,19.89 L6.90013761,18.7646875 C7.0102844,18.73625 7.12841284,18.6615 7.18348624,18.6086875 L7.18348624,17.875 C7.17869725,17.394 7.1363945,17.3509375 6.61918349,16.8244375 C5.01088073,15.18725 4.78899083,13.23725 4.78899083,11.375 C4.78899083,7.730125 7.1842844,4.9359375 10.3609817,4.875 C13.5680092,4.9359375 15.9633028,7.730125 15.9633028,11.375 C15.9633028,13.0446875 15.7549817,15.1734375 14.1331101,16.8244375 C13.6158991,17.3509375 13.5735963,17.394 13.5688073,17.883125 L13.5688073,18.6095 C13.6238807,18.6623125 13.7420092,18.7370625 13.8513578,18.7655 L18.1758165,19.8908125 C18.8127523,20.0565625 20.7522936,20.561125 20.7522936,22.75 C20.7522936,23.1993125 20.3955138,23.5625 19.9541284,23.5625 Z" id="Shape"></path>
                    </g>
                </g>
            </g>
        </g>
    </g>
</svg>
