<?xml version="1.0" encoding="UTF-8"?>
<svg width="26px" height="26px" viewBox="0 0 26 26" version="1.1" xmlns="http://www.w3.org/2000/svg" xmlns:xlink="http://www.w3.org/1999/xlink">
    <!-- Generator: Sketch 42 (36781) - http://www.bohemiancoding.com/sketch -->
    <title>Group 4</title>
    <desc>Created with Sketch.</desc>
    <defs></defs>
    <g id="Symbols" stroke="none" stroke-width="1" fill="#000000" fill-rule="evenodd">
        <g id="topbar/desktop" transform="translate(-913.000000, -28.000000)" fill-rule="nonzero">
            <g id="Group-4" transform="translate(913.000000, 28.000000)">
                <g id="noun_691733">
                    <path d="M23.2983419,26 L2.41025641,26 C1.08140171,26 0,24.9055625 0,23.5616875 L0,2.4375 C0,1.093625 1.08140171,0 2.41025641,0 L23.2983419,0 C24.6271966,0 25.7094017,1.093625 25.7094017,2.4375 L25.7094017,23.5616875 C25.7094017,24.9055625 24.6271966,26 23.2983419,26 Z M2.41025641,1.625 C1.96757265,1.625 1.60683761,1.9898125 1.60683761,2.4375 L1.60683761,23.5616875 C1.60683761,24.0101875 1.96757265,24.375 2.41025641,24.375 L23.2983419,24.375 C23.7418291,24.375 24.1025641,24.0101875 24.1025641,23.5616875 L24.1025641,2.4375 C24.1025641,1.989 23.7418291,1.625 23.2983419,1.625 L2.41025641,1.625 Z M20.8888889,7.3125 L9.64102564,7.3125 C9.19753846,7.3125 8.83760684,6.9485 8.83760684,6.5 C8.83760684,6.0515 9.19753846,5.6875 9.64102564,5.6875 L20.8888889,5.6875 C21.3331795,5.6875 21.6923077,6.0515 21.6923077,6.5 C21.6923077,6.9485 21.3331795,7.3125 20.8888889,7.3125 Z M6.42735043,7.3125 L4.82051282,7.3125 C4.37702564,7.3125 4.01709402,6.9485 4.01709402,6.5 C4.01709402,6.0515 4.37702564,5.6875 4.82051282,5.6875 L6.42735043,5.6875 C6.87083761,5.6875 7.23076923,6.0515 7.23076923,6.5 C7.23076923,6.9485 6.87083761,7.3125 6.42735043,7.3125 Z M10.4444444,13.8125 L4.82051282,13.8125 C4.37702564,13.8125 4.01709402,13.4485 4.01709402,13 C4.01709402,12.5515 4.37702564,12.1875 4.82051282,12.1875 L10.4444444,12.1875 C10.8879316,12.1875 11.2478632,12.5515 11.2478632,13 C11.2478632,13.4485 10.8879316,13.8125 10.4444444,13.8125 Z M20.8888889,13.8125 L14.4615385,13.8125 C14.0172479,13.8125 13.6581197,13.4485 13.6581197,13 C13.6581197,12.5515 14.0172479,12.1875 14.4615385,12.1875 L20.8888889,12.1875 C21.3331795,12.1875 21.6923077,12.5515 21.6923077,13 C21.6923077,13.4485 21.3331795,13.8125 20.8888889,13.8125 Z M8.03418803,8.9375 C6.70533333,8.9375 5.62393162,7.843875 5.62393162,6.5 C5.62393162,5.156125 6.70533333,4.0625 8.03418803,4.0625 C9.36304274,4.0625 10.4444444,5.156125 10.4444444,6.5 C10.4444444,7.843875 9.36304274,8.9375 8.03418803,8.9375 Z M8.03418803,5.6875 C7.59150427,5.6875 7.23076923,6.0523125 7.23076923,6.5 C7.23076923,6.9476875 7.59150427,7.3125 8.03418803,7.3125 C8.47687179,7.3125 8.83760684,6.9476875 8.83760684,6.5 C8.83760684,6.0523125 8.47687179,5.6875 8.03418803,5.6875 Z M15.2649573,20.3125 L4.82051282,20.3125 C4.37702564,20.3125 4.01709402,19.9493125 4.01709402,19.5 C4.01709402,19.0506875 4.37702564,18.6875 4.82051282,18.6875 L15.2649573,18.6875 C15.7092479,18.6875 16.0683761,19.0506875 16.0683761,19.5 C16.0683761,19.9493125 15.7092479,20.3125 15.2649573,20.3125 Z M20.8888889,20.3125 L19.2820513,20.3125 C18.8377607,20.3125 18.4786325,19.9493125 18.4786325,19.5 C18.4786325,19.0506875 18.8377607,18.6875 19.2820513,18.6875 L20.8888889,18.6875 C21.3331795,18.6875 21.6923077,19.0506875 21.6923077,19.5 C21.6923077,19.9493125 21.3331795,20.3125 20.8888889,20.3125 Z M17.6752137,21.9375 C16.346359,21.9375 15.2649573,20.843875 15.2649573,19.5 C15.2649573,18.156125 16.346359,17.0625 17.6752137,17.0625 C19.0040684,17.0625 20.0854701,18.156125 20.0854701,19.5 C20.0854701,20.843875 19.0040684,21.9375 17.6752137,21.9375 Z M17.6752137,18.6875 C17.2317265,18.6875 16.8717949,19.0515 16.8717949,19.5 C16.8717949,19.9485 17.2317265,20.3125 17.6752137,20.3125 C18.1187009,20.3125 18.4786325,19.9485 18.4786325,19.5 C18.4786325,19.0515 18.1187009,18.6875 17.6752137,18.6875 Z M12.8547009,15.4375 C11.5258462,15.4375 10.4444444,14.343875 10.4444444,13 C10.4444444,11.656125 11.5258462,10.5625 12.8547009,10.5625 C14.1835556,10.5625 15.2649573,11.656125 15.2649573,13 C15.2649573,14.343875 14.1835556,15.4375 12.8547009,15.4375 Z M12.8547009,12.1875 C12.4120171,12.1875 12.0512821,12.5523125 12.0512821,13 C12.0512821,13.4476875 12.4120171,13.8125 12.8547009,13.8125 C13.2973846,13.8125 13.6581197,13.4476875 13.6581197,13 C13.6581197,12.5523125 13.2973846,12.1875 12.8547009,12.1875 Z" id="Shape"></path>
                </g>
            </g>
        </g>
    </g>
</svg>
