<?xml version="1.0" encoding="UTF-8" standalone="no"?>
<svg width="24px" height="25px" viewBox="0 0 24 25" version="1.1" xmlns="http://www.w3.org/2000/svg" xmlns:xlink="http://www.w3.org/1999/xlink">
    <!-- Generator: Sketch 41.2 (35397) - http://www.bohemiancoding.com/sketch -->
    <title>noun_576599</title>
    <desc>Created with Sketch.</desc>
    <defs></defs>
    <g id="Page-1" stroke="none" stroke-width="1" fill="none" fill-rule="evenodd">
        <g id="TASK-LIST" transform="translate(-80.000000, -109.000000)">
            <g id="Group-2" transform="translate(80.000000, 109.000000)">
                <g id="Group-3">
                    <g id="noun_576599" transform="translate(0.000000, 0.500000)">
                        <g id="Group">
                            <path d="M12,24 C5.3835,24 0,18.6165 0,12 C0,5.3835 5.3835,0 12,0 C12.414,0 12.75,0.336 12.75,0.75 C12.75,1.164 12.414,1.5 12,1.5 C6.21,1.5 1.5,6.21 1.5,12 C1.5,17.79 6.21,22.5 12,22.5 C17.79,22.5 22.5,17.79 22.5,12 C22.5,11.586 22.83525,11.25 23.25,11.25 C23.66475,11.25 24,11.586 24,12 C24,18.6165 18.6165,24 12,24 Z" id="Shape" fill-opacity="0.81" fill="#254546"></path>
                            <g transform="translate(11.250000, 0.000000)" id="Shape" fill-opacity="0.810773324" fill="#244545">
                                <path d="M0.75,1.5 C0.555,1.5 0.36,1.4175 0.2175,1.2825 C0.0825,1.14 0,0.945 0,0.75 C0,0.555 0.0825,0.36 0.2175,0.2175 C0.5025,-0.06 0.9975,-0.06 1.2825,0.2175 C1.4175,0.36 1.5,0.555 1.5,0.75 C1.5,0.945 1.4175,1.14 1.2825,1.2825 C1.14,1.4175 0.945,1.5 0.75,1.5 Z"></path>
                                <path d="M10.89,9.2775 C10.785,8.88 11.02575,8.4675 11.4225,8.3625 L11.4225,8.3625 C11.8275,8.25 12.2325,8.49 12.345,8.8875 L12.345,8.8875 C12.45,9.2925 12.21,9.6975 11.8125,9.81 L11.8125,9.81 C11.745,9.825 11.685,9.8325 11.6175,9.8325 L11.6175,9.8325 C11.2875,9.8325 10.98,9.615 10.89,9.2775 Z M9.84,6.75 L9.8475,6.75 C9.6375,6.39 9.7575,5.9325 10.1175,5.7225 L10.1175,5.7225 C10.4775,5.5125 10.935,5.64 11.14425,6 L11.14425,6 C11.3475,6.3525 11.22675,6.8175 10.8675,7.02 L10.8675,7.02 C10.7475,7.0875 10.62,7.125 10.4925,7.125 L10.4925,7.125 C10.23675,7.125 9.9825,6.99 9.84,6.75 Z M8.17425,4.575 C7.88175,4.2825 7.88175,3.81 8.17425,3.5175 L8.17425,3.5175 C8.4675,3.225 8.94,3.225 9.23175,3.5175 L9.23175,3.5175 L9.23925,3.5175 L9.23925,3.5175 C9.525,3.81 9.525,4.2825 9.2325,4.575 L9.2325,4.575 C9.09075,4.725 8.895,4.7925 8.7075,4.7925 L8.7075,4.7925 C8.5125,4.7925 8.3175,4.725 8.17425,4.575 Z M6,2.9025 C5.64,2.7 5.51925,2.235 5.73,1.8825 L5.73,1.8825 C5.9325,1.5225 6.39,1.4025 6.75,1.605 L6.75,1.605 L6.75,1.605 L6.75,1.605 C7.10925,1.815 7.23,2.2725 7.0275,2.6325 L7.0275,2.6325 C6.885,2.8725 6.63675,3.0075 6.375,3.0075 L6.375,3.0075 C6.2475,3.0075 6.12,2.97 6,2.9025 Z M3.4725,1.86 L3.4725,1.86 C3.075,1.7475 2.835,1.335 2.94,0.9375 L2.94,0.9375 C3.045,0.54 3.45675,0.3 3.855,0.405 L3.855,0.405 L3.8625,0.405 L3.8625,0.405 C4.26,0.5175 4.49325,0.9225 4.3875,1.3275 L4.3875,1.3275 C4.2975,1.6575 3.9975,1.8825 3.6675,1.8825 L3.6675,1.8825 C3.6,1.8825 3.5325,1.875 3.4725,1.86 Z"></path>
                                <path d="M12,12.75 C11.79675,12.75 11.60925,12.6675 11.4675,12.5325 C11.33175,12.39 11.25,12.195 11.25,12 C11.25,11.805 11.33175,11.61 11.4675,11.4675 C11.73675,11.19 12.2475,11.19 12.5325,11.4675 C12.6675,11.61 12.75,11.805 12.75,12 C12.75,12.195 12.6675,12.39 12.5325,12.5325 C12.39,12.6675 12.195,12.75 12,12.75 Z"></path>
                            </g>
                            <path d="M16.49925,15.75 C16.35675,15.75 16.212,15.70875 16.08375,15.624 L11.58375,12.624 C11.37525,12.4845 11.25,12.2505 11.25,12 L11.25,4.5 C11.25,4.086 11.586,3.75 12,3.75 C12.414,3.75 12.75,4.086 12.75,4.5 L12.75,11.59875 L16.91625,14.376 C17.26125,14.60625 17.35425,15.07125 17.124,15.41625 C16.98,15.633 16.7415,15.75 16.49925,15.75 Z" id="Shape" fill-opacity="0.81" fill="#254546"></path>
                        </g>
                    </g>
                </g>
            </g>
        </g>
    </g>
</svg>