<?xml version="1.0" standalone="no"?>
<!DOCTYPE svg PUBLIC "-//W3C//DTD SVG 20010904//EN"
 "http://www.w3.org/TR/2001/REC-SVG-20010904/DTD/svg10.dtd">
<svg version="1.0" xmlns="http://www.w3.org/2000/svg"
 width="1040.000000pt" height="1040.000000pt" viewBox="0 0 1040.000000 1040.000000"
 preserveAspectRatio="xMidYMid meet">
<metadata>
Created by potrace 1.11, written by Peter Selinger 2001-2013
</metadata>
<g transform="translate(0.000000,1040.000000) scale(0.100000,-0.100000)"
fill="#000000" stroke="none">
<path d="M3420 8910 c-344 -32 -635 -95 -940 -202 -1252 -440 -2184 -1534
-2419 -2838 -46 -259 -55 -363 -55 -670 0 -378 26 -594 114 -935 71 -275 151
-485 285 -750 482 -954 1363 -1660 2398 -1920 697 -175 1434 -146 2107 83 588
201 1112 544 1541 1009 57 62 106 113 110 113 4 0 38 -12 75 -26 345 -131 662
-182 1063 -171 272 7 439 32 682 102 557 160 1034 479 1408 939 228 280 427
678 521 1043 178 688 84 1437 -258 2048 -282 505 -694 898 -1207 1150 -266
131 -484 203 -760 250 -554 95 -1122 20 -1638 -215 l-137 -63 -78 74 c-219
210 -515 418 -807 570 -390 203 -802 331 -1250 390 -172 23 -600 33 -755 19z"/>
</g>
</svg>
