<?xml version="1.0" encoding="UTF-8"?>
<svg width="26px" height="26px" viewBox="0 0 26 26" version="1.1" xmlns="http://www.w3.org/2000/svg" xmlns:xlink="http://www.w3.org/1999/xlink">
    <!-- Generator: Sketch 42 (36781) - http://www.bohemiancoding.com/sketch -->
    <title>Group 2</title>
    <desc>Created with Sketch.</desc>
    <defs></defs>
    <g id="Symbols" stroke="none" stroke-width="1" fill="#000000" fill-rule="evenodd" fill-opacity="0.997395833">
        <g id="topbar/desktop" transform="translate(-780.000000, -28.000000)">
            <g id="Group-2" transform="translate(780.000000, 28.000000)">
                <g id="noun_576599">
                    <g id="Group">
                        <path d="M12.6384,26 C5.66990218,26 0,20.167875 0,13 C0,5.832125 5.66990218,0 12.6384,0 C13.0744248,0 13.4283,0.364 13.4283,0.8125 C13.4283,1.261 13.0744248,1.625 12.6384,1.625 C6.54037198,1.625 1.5798,6.7275 1.5798,13 C1.5798,19.2725 6.54037198,24.375 12.6384,24.375 C18.7364279,24.375 23.6969999,19.2725 23.6969999,13 C23.6969999,12.5515 24.0500852,12.1875 24.4868999,12.1875 C24.9237146,12.1875 25.2767999,12.5515 25.2767999,13 C25.2767999,20.167875 19.6068977,26 12.6384,26 Z" id="Shape"></path>
                        <g transform="translate(11.848500, 0.000000)" id="Shape">
                            <path d="M0.789899998,1.625 C0.584525998,1.625 0.379151999,1.535625 0.229070999,1.389375 C0.0868889997,1.235 0,1.02375 0,0.8125 C0,0.60125 0.0868889997,0.39 0.229070999,0.235625 C0.529232998,-0.065 1.050567,-0.065 1.350729,0.235625 C1.492911,0.39 1.5798,0.60125 1.5798,0.8125 C1.5798,1.02375 1.492911,1.235 1.350729,1.389375 C1.200648,1.535625 0.995273997,1.625 0.789899998,1.625 Z"></path>
                            <path d="M11.469348,10.050625 C11.358762,9.62 11.6123199,9.173125 12.030177,9.059375 L12.030177,9.059375 C12.456723,8.9375 12.883269,9.1975 13.001754,9.628125 L13.001754,9.628125 C13.11234,10.066875 12.859572,10.505625 12.440925,10.6275 L12.440925,10.6275 C12.369834,10.64375 12.306642,10.651875 12.235551,10.651875 L12.235551,10.651875 C11.887995,10.651875 11.564136,10.41625 11.469348,10.050625 Z M10.363488,7.3125 L10.371387,7.3125 C10.150215,6.9225 10.276599,6.426875 10.655751,6.199375 L10.655751,6.199375 C11.034903,5.971875 11.516742,6.11 11.7371241,6.5 L11.7371241,6.5 C11.951187,6.881875 11.8240131,7.385625 11.445651,7.605 L11.445651,7.605 C11.319267,7.678125 11.184984,7.71875 11.050701,7.71875 L11.050701,7.71875 C10.7813451,7.71875 10.513569,7.5725 10.363488,7.3125 Z M8.60912008,4.95625 C8.30105908,4.639375 8.30105908,4.1275 8.60912008,3.810625 L8.60912008,3.810625 C8.91797097,3.49375 9.41560797,3.49375 9.72287907,3.810625 L9.72287907,3.810625 L9.73077807,3.810625 L9.73077807,3.810625 C10.03173,4.1275 10.03173,4.639375 9.72366897,4.95625 L9.72366897,4.95625 C9.57437787,5.11875 9.36821397,5.191875 9.17073897,5.191875 L9.17073897,5.191875 C8.96536497,5.191875 8.75999097,5.11875 8.60912008,4.95625 Z M6.31919998,3.144375 C5.94004798,2.925 5.81287408,2.42125 6.03483598,2.039375 L6.03483598,2.039375 C6.24810898,1.649375 6.72994798,1.519375 7.10909998,1.73875 L7.10909998,1.73875 L7.10909998,1.73875 L7.10909998,1.73875 C7.48746208,1.96625 7.61463598,2.461875 7.40136298,2.851875 L7.40136298,2.851875 C7.25128198,3.111875 6.98982508,3.258125 6.71414998,3.258125 L6.71414998,3.258125 C6.57986698,3.258125 6.44558398,3.2175 6.31919998,3.144375 Z M3.65723699,2.015 L3.65723699,2.015 C3.23858999,1.893125 2.98582199,1.44625 3.09640799,1.015625 L3.09640799,1.015625 C3.20699399,0.585 3.64064909,0.325 4.06008599,0.43875 L4.06008599,0.43875 L4.06798499,0.43875 L4.06798499,0.43875 C4.48663199,0.560625 4.73229089,0.999375 4.62091499,1.438125 L4.62091499,1.438125 C4.52612699,1.795625 4.21016699,2.039375 3.86261099,2.039375 L3.86261099,2.039375 C3.79151999,2.039375 3.72042899,2.03125 3.65723699,2.015 Z"></path>
                            <path d="M12.6384,13.8125 C12.4243371,13.8125 12.2268621,13.723125 12.077571,13.576875 C11.9345991,13.4225 11.8485,13.21125 11.8485,13 C11.8485,12.78875 11.9345991,12.5775 12.077571,12.423125 C12.3611451,12.1225 12.899067,12.1225 13.199229,12.423125 C13.341411,12.5775 13.4283,12.78875 13.4283,13 C13.4283,13.21125 13.341411,13.4225 13.199229,13.576875 C13.049148,13.723125 12.843774,13.8125 12.6384,13.8125 Z"></path>
                        </g>
                        <path d="M17.37701,17.0625 C17.2269291,17.0625 17.0744784,17.0178125 16.9394055,16.926 L12.2000055,13.676 C11.9804133,13.524875 11.8485,13.271375 11.8485,13 L11.8485,4.875 C11.8485,4.4265 12.2023752,4.0625 12.6384,4.0625 C13.0744248,4.0625 13.4283,4.4265 13.4283,4.875 L13.4283,12.5653125 L17.8161944,15.574 C18.1795484,15.8234375 18.277496,16.3271875 18.0349967,16.7009375 C17.8833359,16.93575 17.6321477,17.0625 17.37701,17.0625 Z" id="Shape"></path>
                    </g>
                </g>
            </g>
        </g>
    </g>
</svg>
